<svg width="402" height="402" viewBox="0 0 402 402" fill="none" xmlns="http://www.w3.org/2000/svg">
<g style="mix-blend-mode:hard-light" filter="url(#filter0_dig_1_68)">
<path d="M198.6 101L206.254 181.087L255.169 140.907L217.078 192.505L259.039 196.541L301 200.578L217.078 208.652L255.169 260.25L206.254 220.069L198.6 301L190.946 220.069L142.031 260.25L180.122 208.652L101 200.578L180.122 192.505L142.031 140.907L190.946 181.087L198.6 101Z" fill="white"/>
<g clip-path="url(#paint0_diamond_1_68_clip_path)" data-figma-skip-parse="true"><g transform="matrix(0 0.1 -0.1 0 201 201)"><rect x="0" y="0" width="1010" height="1010" fill="url(#paint0_diamond_1_68)" opacity="1" shape-rendering="crispEdges"/><rect x="0" y="0" width="1010" height="1010" transform="scale(1 -1)" fill="url(#paint0_diamond_1_68)" opacity="1" shape-rendering="crispEdges"/><rect x="0" y="0" width="1010" height="1010" transform="scale(-1 1)" fill="url(#paint0_diamond_1_68)" opacity="1" shape-rendering="crispEdges"/><rect x="0" y="0" width="1010" height="1010" transform="scale(-1)" fill="url(#paint0_diamond_1_68)" opacity="1" shape-rendering="crispEdges"/></g></g><path d="M198.6 101L199.098 100.952H198.102L198.6 101ZM206.254 181.087L205.756 181.134L205.845 182.069L206.571 181.473L206.254 181.087ZM255.169 140.907L255.571 141.204L254.851 140.52L255.169 140.907ZM217.078 192.505L216.675 192.208L216.151 192.918L217.03 193.002L217.078 192.505ZM301 200.578L301.048 201.076L301.048 200.08L301 200.578ZM217.078 208.652L217.03 208.154L216.151 208.238L216.675 208.949L217.078 208.652ZM255.169 260.25L254.851 260.636L255.571 259.953L255.169 260.25ZM206.254 220.069L206.571 219.683L205.844 219.086L205.756 220.022L206.254 220.069ZM198.6 301L198.102 301.047H199.098L198.6 301ZM190.946 220.069L191.444 220.022L191.356 219.086L190.629 219.683L190.946 220.069ZM142.031 260.25L141.629 259.953L142.349 260.636L142.031 260.25ZM180.122 208.652L180.525 208.949L181.045 208.243L180.173 208.154L180.122 208.652ZM101 200.578L100.949 200.081L100.949 201.075L101 200.578ZM180.122 192.505L180.173 193.002L181.045 192.913L180.525 192.208L180.122 192.505ZM142.031 140.907L142.349 140.52L141.629 141.204L142.031 140.907ZM190.946 181.087L190.629 181.473L191.355 182.069L191.444 181.134L190.946 181.087ZM259.039 196.541L258.991 197.039L258.991 197.039L259.039 196.541ZM198.6 101L198.102 101.048L205.756 181.134L206.254 181.087L206.751 181.039L199.098 100.952L198.6 101ZM206.254 181.087L206.571 181.473L255.486 141.293L255.169 140.907L254.851 140.52L205.936 180.701L206.254 181.087ZM255.169 140.907L254.766 140.61L216.675 192.208L217.078 192.505L217.48 192.802L255.571 141.204L255.169 140.907ZM301 200.578L300.952 200.08L217.03 208.154L217.078 208.652L217.125 209.149L301.048 201.076L301 200.578ZM217.078 208.652L216.675 208.949L254.766 260.546L255.169 260.25L255.571 259.953L217.48 208.355L217.078 208.652ZM255.169 260.25L255.486 259.863L206.571 219.683L206.254 220.069L205.936 220.456L254.851 260.636L255.169 260.25ZM206.254 220.069L205.756 220.022L198.102 300.953L198.6 301L199.098 301.047L206.751 220.116L206.254 220.069ZM198.6 301L199.098 300.953L191.444 220.022L190.946 220.069L190.449 220.116L198.102 301.047L198.6 301ZM190.946 220.069L190.629 219.683L141.714 259.863L142.031 260.25L142.349 260.636L191.264 220.456L190.946 220.069ZM142.031 260.25L142.434 260.546L180.525 208.949L180.122 208.652L179.72 208.355L141.629 259.953L142.031 260.25ZM180.122 208.652L180.173 208.154L101.051 200.081L101 200.578L100.949 201.075L180.072 209.149L180.122 208.652ZM101 200.578L101.051 201.075L180.173 193.002L180.122 192.505L180.072 192.007L100.949 200.081L101 200.578ZM180.122 192.505L180.525 192.208L142.434 140.61L142.031 140.907L141.629 141.204L179.72 192.802L180.122 192.505ZM142.031 140.907L141.714 141.293L190.629 181.473L190.946 181.087L191.264 180.701L142.349 140.52L142.031 140.907ZM190.946 181.087L191.444 181.134L199.098 101.048L198.6 101L198.102 100.952L190.449 181.039L190.946 181.087ZM217.078 192.505L217.03 193.002L258.991 197.039L259.039 196.541L259.087 196.044L217.125 192.007L217.078 192.505ZM259.039 196.541L258.991 197.039L300.952 201.076L301 200.578L301.048 200.08L259.087 196.044L259.039 196.541Z" data-figma-gradient-fill="{&#34;type&#34;:&#34;GRADIENT_DIAMOND&#34;,&#34;stops&#34;:[{&#34;color&#34;:{&#34;r&#34;:1.0,&#34;g&#34;:1.0,&#34;b&#34;:0.93750,&#34;a&#34;:1.0},&#34;position&#34;:0.0},{&#34;color&#34;:{&#34;r&#34;:1.0,&#34;g&#34;:0.98958331346511841,&#34;b&#34;:0.8750,&#34;a&#34;:1.0},&#34;position&#34;:0.20673076808452606},{&#34;color&#34;:{&#34;r&#34;:0.98589742183685303,&#34;g&#34;:1.0,&#34;b&#34;:0.92307692766189575,&#34;a&#34;:1.0},&#34;position&#34;:0.47115385532379150},{&#34;color&#34;:{&#34;r&#34;:0.96322113275527954,&#34;g&#34;:1.0,&#34;b&#34;:0.91826921701431274,&#34;a&#34;:1.0},&#34;position&#34;:0.74038463830947876},{&#34;color&#34;:{&#34;r&#34;:1.0,&#34;g&#34;:0.99503207206726074,&#34;b&#34;:0.85096156597137451,&#34;a&#34;:1.0},&#34;position&#34;:1.0}],&#34;stopsVar&#34;:[{&#34;color&#34;:{&#34;r&#34;:1.0,&#34;g&#34;:1.0,&#34;b&#34;:0.93750,&#34;a&#34;:1.0},&#34;position&#34;:0.0},{&#34;color&#34;:{&#34;r&#34;:1.0,&#34;g&#34;:0.98958331346511841,&#34;b&#34;:0.8750,&#34;a&#34;:1.0},&#34;position&#34;:0.20673076808452606},{&#34;color&#34;:{&#34;r&#34;:0.98589742183685303,&#34;g&#34;:1.0,&#34;b&#34;:0.92307692766189575,&#34;a&#34;:1.0},&#34;position&#34;:0.47115385532379150},{&#34;color&#34;:{&#34;r&#34;:0.96322113275527954,&#34;g&#34;:1.0,&#34;b&#34;:0.91826921701431274,&#34;a&#34;:1.0},&#34;position&#34;:0.74038463830947876},{&#34;color&#34;:{&#34;r&#34;:1.0,&#34;g&#34;:0.99503207206726074,&#34;b&#34;:0.85096156597137451,&#34;a&#34;:1.0},&#34;position&#34;:1.0}],&#34;transform&#34;:{&#34;m00&#34;:1.2246468419972560e-14,&#34;m01&#34;:-200.0,&#34;m02&#34;:301.0,&#34;m10&#34;:200.0,&#34;m11&#34;:1.2246468419972560e-14,&#34;m12&#34;:101.0},&#34;opacity&#34;:1.0,&#34;blendMode&#34;:&#34;NORMAL&#34;,&#34;visible&#34;:true}"/>
</g>
<defs>
<filter id="filter0_dig_1_68" x="0.949242" y="0.952438" width="400.099" height="400.095" filterUnits="userSpaceOnUse" color-interpolation-filters="sRGB">
<feFlood flood-opacity="0" result="BackgroundImageFix"/>
<feColorMatrix in="SourceAlpha" type="matrix" values="0 0 0 0 0 0 0 0 0 0 0 0 0 0 0 0 0 0 127 0" result="hardAlpha"/>
<feOffset/>
<feGaussianBlur stdDeviation="50"/>
<feComposite in2="hardAlpha" operator="out"/>
<feColorMatrix type="matrix" values="0 0 0 0 1 0 0 0 0 0.997115 0 0 0 0 0.913462 0 0 0 1 0"/>
<feBlend mode="hard-light" in2="BackgroundImageFix" result="effect1_dropShadow_1_68"/>
<feBlend mode="normal" in="SourceGraphic" in2="effect1_dropShadow_1_68" result="shape"/>
<feColorMatrix in="SourceAlpha" type="matrix" values="0 0 0 0 0 0 0 0 0 0 0 0 0 0 0 0 0 0 127 0" result="hardAlpha"/>
<feOffset dx="-300" dy="-300"/>
<feGaussianBlur stdDeviation="50"/>
<feComposite in2="hardAlpha" operator="arithmetic" k2="-1" k3="1"/>
<feColorMatrix type="matrix" values="0 0 0 0 0 0 0 0 0 0 0 0 0 0 0 0 0 0 0.5 0"/>
<feBlend mode="soft-light" in2="shape" result="effect2_innerShadow_1_68"/>
<feTurbulence type="fractalNoise" baseFrequency="0.0099999997764825821 0.0099999997764825821" numOctaves="3" seed="3612" />
<feDisplacementMap in="effect2_innerShadow_1_68" scale="0.2199999988079071" xChannelSelector="R" yChannelSelector="G" result="displacedImage" width="100%" height="100%" />
<feMerge result="effect3_texture_1_68">
<feMergeNode in="displacedImage"/>
</feMerge>
</filter>
<clipPath id="paint0_diamond_1_68_clip_path"><path d="M198.6 101L199.098 100.952H198.102L198.6 101ZM206.254 181.087L205.756 181.134L205.845 182.069L206.571 181.473L206.254 181.087ZM255.169 140.907L255.571 141.204L254.851 140.52L255.169 140.907ZM217.078 192.505L216.675 192.208L216.151 192.918L217.03 193.002L217.078 192.505ZM301 200.578L301.048 201.076L301.048 200.08L301 200.578ZM217.078 208.652L217.03 208.154L216.151 208.238L216.675 208.949L217.078 208.652ZM255.169 260.25L254.851 260.636L255.571 259.953L255.169 260.25ZM206.254 220.069L206.571 219.683L205.844 219.086L205.756 220.022L206.254 220.069ZM198.6 301L198.102 301.047H199.098L198.6 301ZM190.946 220.069L191.444 220.022L191.356 219.086L190.629 219.683L190.946 220.069ZM142.031 260.25L141.629 259.953L142.349 260.636L142.031 260.25ZM180.122 208.652L180.525 208.949L181.045 208.243L180.173 208.154L180.122 208.652ZM101 200.578L100.949 200.081L100.949 201.075L101 200.578ZM180.122 192.505L180.173 193.002L181.045 192.913L180.525 192.208L180.122 192.505ZM142.031 140.907L142.349 140.52L141.629 141.204L142.031 140.907ZM190.946 181.087L190.629 181.473L191.355 182.069L191.444 181.134L190.946 181.087ZM259.039 196.541L258.991 197.039L258.991 197.039L259.039 196.541ZM198.6 101L198.102 101.048L205.756 181.134L206.254 181.087L206.751 181.039L199.098 100.952L198.6 101ZM206.254 181.087L206.571 181.473L255.486 141.293L255.169 140.907L254.851 140.52L205.936 180.701L206.254 181.087ZM255.169 140.907L254.766 140.61L216.675 192.208L217.078 192.505L217.48 192.802L255.571 141.204L255.169 140.907ZM301 200.578L300.952 200.08L217.03 208.154L217.078 208.652L217.125 209.149L301.048 201.076L301 200.578ZM217.078 208.652L216.675 208.949L254.766 260.546L255.169 260.25L255.571 259.953L217.48 208.355L217.078 208.652ZM255.169 260.25L255.486 259.863L206.571 219.683L206.254 220.069L205.936 220.456L254.851 260.636L255.169 260.25ZM206.254 220.069L205.756 220.022L198.102 300.953L198.6 301L199.098 301.047L206.751 220.116L206.254 220.069ZM198.6 301L199.098 300.953L191.444 220.022L190.946 220.069L190.449 220.116L198.102 301.047L198.6 301ZM190.946 220.069L190.629 219.683L141.714 259.863L142.031 260.25L142.349 260.636L191.264 220.456L190.946 220.069ZM142.031 260.25L142.434 260.546L180.525 208.949L180.122 208.652L179.72 208.355L141.629 259.953L142.031 260.25ZM180.122 208.652L180.173 208.154L101.051 200.081L101 200.578L100.949 201.075L180.072 209.149L180.122 208.652ZM101 200.578L101.051 201.075L180.173 193.002L180.122 192.505L180.072 192.007L100.949 200.081L101 200.578ZM180.122 192.505L180.525 192.208L142.434 140.61L142.031 140.907L141.629 141.204L179.72 192.802L180.122 192.505ZM142.031 140.907L141.714 141.293L190.629 181.473L190.946 181.087L191.264 180.701L142.349 140.52L142.031 140.907ZM190.946 181.087L191.444 181.134L199.098 101.048L198.6 101L198.102 100.952L190.449 181.039L190.946 181.087ZM217.078 192.505L217.03 193.002L258.991 197.039L259.039 196.541L259.087 196.044L217.125 192.007L217.078 192.505ZM259.039 196.541L258.991 197.039L300.952 201.076L301 200.578L301.048 200.08L259.087 196.044L259.039 196.541Z"/></clipPath><linearGradient id="paint0_diamond_1_68" x1="0" y1="0" x2="500" y2="500" gradientUnits="userSpaceOnUse">
<stop stop-color="#FFFFEF"/>
<stop offset="0.206731" stop-color="#FFFCDF"/>
<stop offset="0.471154" stop-color="#FBFFEB"/>
<stop offset="0.740385" stop-color="#F6FFEA"/>
<stop offset="1" stop-color="#FFFED9"/>
</linearGradient>
</defs>
</svg>
